<mxfile host="app.diagrams.net" modified="2022-05-12T02:32:05.360Z" agent="5.0 (Windows NT 10.0; Win64; x64) AppleWebKit/537.36 (KHTML, like Gecko) Chrome/101.0.4951.54 Safari/537.36" etag="8abmbZSAGydSUiBpqvII" version="17.1.3" type="github">
  <diagram id="hpItlcKNqfIDn2qF35Ql" name="Page-1">
    <mxGraphModel dx="1038" dy="547" grid="1" gridSize="10" guides="1" tooltips="1" connect="1" arrows="1" fold="1" page="1" pageScale="1" pageWidth="827" pageHeight="1169" math="0" shadow="0">
      <root>
        <mxCell id="0" />
        <mxCell id="1" parent="0" />
        <mxCell id="XHGFNi-8rhCAyEHNkbib-1" value="" style="rounded=0;whiteSpace=wrap;html=1;" vertex="1" parent="1">
          <mxGeometry x="40" y="40" width="730" height="460" as="geometry" />
        </mxCell>
        <mxCell id="XHGFNi-8rhCAyEHNkbib-2" value="" style="rounded=0;whiteSpace=wrap;html=1;" vertex="1" parent="1">
          <mxGeometry x="40" y="40" width="180" height="460" as="geometry" />
        </mxCell>
        <mxCell id="XHGFNi-8rhCAyEHNkbib-3" value="" style="rounded=1;arcSize=36;whiteSpace=wrap;html=1;align=center;fontFamily=Helvetica;fontSize=10;fontColor=default;strokeColor=default;fillColor=default;" vertex="1" parent="1">
          <mxGeometry x="47.19" y="427.5" width="165" height="30" as="geometry" />
        </mxCell>
        <mxCell id="XHGFNi-8rhCAyEHNkbib-4" value="" style="rounded=0;whiteSpace=wrap;html=1;fontFamily=Helvetica;fontSize=10;fontColor=default;strokeColor=default;strokeWidth=1;fillColor=default;gradientColor=none;" vertex="1" parent="1">
          <mxGeometry x="230" y="67.5" width="530" height="422.5" as="geometry" />
        </mxCell>
        <mxCell id="XHGFNi-8rhCAyEHNkbib-5" value="" style="rounded=1;arcSize=36;whiteSpace=wrap;html=1;align=center;fontFamily=Helvetica;fontSize=10;fontColor=default;strokeColor=default;fillColor=default;" vertex="1" parent="1">
          <mxGeometry x="45" y="160" width="165" height="30" as="geometry" />
        </mxCell>
        <mxCell id="XHGFNi-8rhCAyEHNkbib-6" value="" style="rounded=1;arcSize=36;whiteSpace=wrap;html=1;align=center;fontFamily=Helvetica;fontSize=10;fontColor=default;strokeColor=default;fillColor=default;" vertex="1" parent="1">
          <mxGeometry x="47.19" y="390" width="165" height="30" as="geometry" />
        </mxCell>
        <mxCell id="XHGFNi-8rhCAyEHNkbib-7" value="" style="rounded=1;arcSize=36;whiteSpace=wrap;html=1;align=center;fontFamily=Helvetica;fontSize=10;fontColor=default;strokeColor=default;fillColor=default;" vertex="1" parent="1">
          <mxGeometry x="45" y="100" width="165" height="30" as="geometry" />
        </mxCell>
        <mxCell id="XHGFNi-8rhCAyEHNkbib-8" value="Nhóm 5" style="text;html=1;strokeColor=none;fillColor=none;align=center;verticalAlign=middle;whiteSpace=wrap;rounded=0;fontSize=12;" vertex="1" parent="1">
          <mxGeometry x="110" y="57.5" width="60" height="30" as="geometry" />
        </mxCell>
        <mxCell id="XHGFNi-8rhCAyEHNkbib-9" value="img" style="rounded=0;whiteSpace=wrap;html=1;" vertex="1" parent="1">
          <mxGeometry x="70" y="60" width="30" height="25" as="geometry" />
        </mxCell>
        <mxCell id="XHGFNi-8rhCAyEHNkbib-10" value="" style="rounded=1;arcSize=36;whiteSpace=wrap;html=1;align=center;fontFamily=Helvetica;fontSize=10;fontColor=default;strokeColor=default;fillColor=default;" vertex="1" parent="1">
          <mxGeometry x="45" y="260" width="165" height="30" as="geometry" />
        </mxCell>
        <mxCell id="XHGFNi-8rhCAyEHNkbib-11" value="icon" style="rounded=0;whiteSpace=wrap;html=1;" vertex="1" parent="1">
          <mxGeometry x="50" y="107.5" width="30" height="15" as="geometry" />
        </mxCell>
        <mxCell id="XHGFNi-8rhCAyEHNkbib-12" value="" style="rounded=1;arcSize=36;whiteSpace=wrap;html=1;align=center;fontFamily=Helvetica;fontSize=10;fontColor=default;strokeColor=default;fillColor=default;" vertex="1" parent="1">
          <mxGeometry x="45" y="195" width="165" height="30" as="geometry" />
        </mxCell>
        <mxCell id="XHGFNi-8rhCAyEHNkbib-13" value="" style="line;strokeWidth=2;html=1;rounded=0;fontFamily=Helvetica;fontSize=12;fontColor=default;fillColor=default;" vertex="1" parent="1">
          <mxGeometry x="50" y="90" width="150" height="10" as="geometry" />
        </mxCell>
        <mxCell id="XHGFNi-8rhCAyEHNkbib-14" value="Trang chủ admin" style="text;html=1;strokeColor=none;fillColor=none;align=center;verticalAlign=middle;whiteSpace=wrap;rounded=0;fontSize=10;" vertex="1" parent="1">
          <mxGeometry x="90" y="107.5" width="80" height="15" as="geometry" />
        </mxCell>
        <mxCell id="XHGFNi-8rhCAyEHNkbib-15" value="" style="line;strokeWidth=2;html=1;rounded=0;fontFamily=Helvetica;fontSize=12;fontColor=default;fillColor=default;" vertex="1" parent="1">
          <mxGeometry x="50" y="130" width="140" height="10" as="geometry" />
        </mxCell>
        <mxCell id="XHGFNi-8rhCAyEHNkbib-16" value="Loại danh mục" style="text;html=1;strokeColor=none;fillColor=none;align=center;verticalAlign=middle;whiteSpace=wrap;rounded=0;fontSize=10;" vertex="1" parent="1">
          <mxGeometry x="90" y="170" width="70" height="10" as="geometry" />
        </mxCell>
        <mxCell id="XHGFNi-8rhCAyEHNkbib-17" value="Sản Phẩm" style="text;html=1;strokeColor=none;fillColor=none;align=center;verticalAlign=middle;whiteSpace=wrap;rounded=0;fontSize=10;" vertex="1" parent="1">
          <mxGeometry x="90" y="202.5" width="50" height="15" as="geometry" />
        </mxCell>
        <mxCell id="XHGFNi-8rhCAyEHNkbib-18" value="Khách hàng - đối tác" style="text;html=1;strokeColor=none;fillColor=none;align=center;verticalAlign=middle;whiteSpace=wrap;rounded=0;fontSize=10;" vertex="1" parent="1">
          <mxGeometry x="90" y="267.5" width="100" height="15" as="geometry" />
        </mxCell>
        <mxCell id="XHGFNi-8rhCAyEHNkbib-19" value="" style="line;strokeWidth=2;html=1;rounded=0;fontFamily=Helvetica;fontSize=12;fontColor=default;fillColor=default;" vertex="1" parent="1">
          <mxGeometry x="50" y="230" width="140" height="10" as="geometry" />
        </mxCell>
        <mxCell id="XHGFNi-8rhCAyEHNkbib-20" value="Quản trị danh mục" style="text;html=1;strokeColor=none;fillColor=none;align=center;verticalAlign=middle;whiteSpace=wrap;rounded=0;fontSize=10;" vertex="1" parent="1">
          <mxGeometry x="45" y="140" width="95" height="20" as="geometry" />
        </mxCell>
        <mxCell id="XHGFNi-8rhCAyEHNkbib-21" value="Thống kê" style="text;html=1;strokeColor=none;fillColor=none;align=center;verticalAlign=middle;whiteSpace=wrap;rounded=0;fontSize=10;" vertex="1" parent="1">
          <mxGeometry x="50" y="240" width="50" height="20" as="geometry" />
        </mxCell>
        <mxCell id="XHGFNi-8rhCAyEHNkbib-22" value="Doanh Thu" style="text;html=1;strokeColor=none;fillColor=none;align=center;verticalAlign=middle;whiteSpace=wrap;rounded=0;fontSize=10;" vertex="1" parent="1">
          <mxGeometry x="92.19" y="397.5" width="60" height="15" as="geometry" />
        </mxCell>
        <mxCell id="XHGFNi-8rhCAyEHNkbib-23" value="Tài Khoản" style="text;html=1;strokeColor=none;fillColor=none;align=center;verticalAlign=middle;whiteSpace=wrap;rounded=0;fontSize=10;" vertex="1" parent="1">
          <mxGeometry x="92.19" y="435" width="60" height="15" as="geometry" />
        </mxCell>
        <mxCell id="XHGFNi-8rhCAyEHNkbib-24" value="icon" style="rounded=0;whiteSpace=wrap;html=1;" vertex="1" parent="1">
          <mxGeometry x="50" y="167.5" width="30" height="15" as="geometry" />
        </mxCell>
        <mxCell id="XHGFNi-8rhCAyEHNkbib-25" value="icon" style="rounded=0;whiteSpace=wrap;html=1;" vertex="1" parent="1">
          <mxGeometry x="50" y="202.5" width="30" height="15" as="geometry" />
        </mxCell>
        <mxCell id="XHGFNi-8rhCAyEHNkbib-26" value="icon" style="rounded=0;whiteSpace=wrap;html=1;" vertex="1" parent="1">
          <mxGeometry x="50" y="267.5" width="30" height="15" as="geometry" />
        </mxCell>
        <mxCell id="XHGFNi-8rhCAyEHNkbib-27" value="icon" style="rounded=0;whiteSpace=wrap;html=1;" vertex="1" parent="1">
          <mxGeometry x="52.19" y="397.5" width="30" height="15" as="geometry" />
        </mxCell>
        <mxCell id="XHGFNi-8rhCAyEHNkbib-28" value="icon" style="rounded=0;whiteSpace=wrap;html=1;" vertex="1" parent="1">
          <mxGeometry x="52.19" y="435" width="30" height="15" as="geometry" />
        </mxCell>
        <mxCell id="XHGFNi-8rhCAyEHNkbib-29" value="Khách hàng" style="text;html=1;strokeColor=none;fillColor=none;align=center;verticalAlign=middle;whiteSpace=wrap;rounded=0;fontSize=12;" vertex="1" parent="1">
          <mxGeometry x="220" y="37.5" width="70" height="30" as="geometry" />
        </mxCell>
        <mxCell id="XHGFNi-8rhCAyEHNkbib-30" value="Danh sách&amp;nbsp; khách hàng" style="text;html=1;strokeColor=none;fillColor=none;align=center;verticalAlign=middle;whiteSpace=wrap;rounded=0;fontFamily=Helvetica;fontSize=10;fontColor=default;" vertex="1" parent="1">
          <mxGeometry x="240" y="72.5" width="110" height="17.5" as="geometry" />
        </mxCell>
        <mxCell id="XHGFNi-8rhCAyEHNkbib-31" value="&amp;gt;" style="rounded=0;whiteSpace=wrap;html=1;fontFamily=Helvetica;fontSize=10;fontColor=default;strokeColor=default;fillColor=default;strokeWidth=1;gradientColor=none;" vertex="1" parent="1">
          <mxGeometry x="190" y="170" width="10" height="10" as="geometry" />
        </mxCell>
        <mxCell id="XHGFNi-8rhCAyEHNkbib-32" value="&amp;gt;" style="rounded=0;whiteSpace=wrap;html=1;fontFamily=Helvetica;fontSize=10;fontColor=default;strokeColor=default;fillColor=default;strokeWidth=1;gradientColor=none;" vertex="1" parent="1">
          <mxGeometry x="190" y="207.5" width="10" height="10" as="geometry" />
        </mxCell>
        <mxCell id="XHGFNi-8rhCAyEHNkbib-33" value="&amp;gt;" style="rounded=0;whiteSpace=wrap;html=1;fontFamily=Helvetica;fontSize=10;fontColor=default;strokeColor=default;fillColor=default;strokeWidth=1;gradientColor=none;textOpacity=90;rotation=90;" vertex="1" parent="1">
          <mxGeometry x="190" y="270" width="10" height="10" as="geometry" />
        </mxCell>
        <mxCell id="XHGFNi-8rhCAyEHNkbib-34" value="" style="rounded=1;arcSize=8;whiteSpace=wrap;html=1;align=center;fontFamily=Helvetica;fontSize=10;fontColor=default;strokeColor=default;fillColor=default;" vertex="1" parent="1">
          <mxGeometry x="47.19" y="290" width="160.62" height="90" as="geometry" />
        </mxCell>
        <mxCell id="XHGFNi-8rhCAyEHNkbib-35" value="Khách Hàng" style="text;html=1;strokeColor=none;fillColor=none;align=center;verticalAlign=middle;whiteSpace=wrap;rounded=0;fontFamily=Helvetica;fontSize=10;fontColor=default;textOpacity=90;spacing=2;spacingBottom=14;" vertex="1" parent="1">
          <mxGeometry x="52.5" y="300" width="57.5" height="10" as="geometry" />
        </mxCell>
        <mxCell id="XHGFNi-8rhCAyEHNkbib-36" value="Danh sách đơn hàng" style="text;html=1;strokeColor=none;fillColor=none;align=center;verticalAlign=middle;whiteSpace=wrap;rounded=0;fontFamily=Helvetica;fontSize=10;fontColor=default;" vertex="1" parent="1">
          <mxGeometry x="74.38" y="310" width="96.25" height="10" as="geometry" />
        </mxCell>
        <mxCell id="XHGFNi-8rhCAyEHNkbib-37" value="Danh sách khách hàng" style="text;html=1;strokeColor=none;fillColor=none;align=center;verticalAlign=middle;whiteSpace=wrap;rounded=0;fontFamily=Helvetica;fontSize=10;fontColor=default;" vertex="1" parent="1">
          <mxGeometry x="70" y="325" width="110.62" height="10" as="geometry" />
        </mxCell>
        <mxCell id="XHGFNi-8rhCAyEHNkbib-38" value="Đối tác" style="text;html=1;strokeColor=none;fillColor=none;align=center;verticalAlign=middle;whiteSpace=wrap;rounded=0;fontFamily=Helvetica;fontSize=10;fontColor=default;textOpacity=90;spacing=2;spacingBottom=0;" vertex="1" parent="1">
          <mxGeometry x="52.5" y="338" width="37.5" height="10" as="geometry" />
        </mxCell>
        <mxCell id="XHGFNi-8rhCAyEHNkbib-39" value="Danh sách đối tác" style="text;html=1;strokeColor=none;fillColor=none;align=center;verticalAlign=middle;whiteSpace=wrap;rounded=0;fontFamily=Helvetica;fontSize=10;fontColor=default;" vertex="1" parent="1">
          <mxGeometry x="73.75" y="355" width="96.25" height="10" as="geometry" />
        </mxCell>
        <mxCell id="XHGFNi-8rhCAyEHNkbib-40" value="" style="shape=table;html=1;whiteSpace=wrap;startSize=0;container=1;collapsible=0;childLayout=tableLayout;rounded=0;fontFamily=Helvetica;fontSize=7;fontColor=default;strokeColor=default;strokeWidth=1;fillColor=default;gradientColor=none;direction=east;flipV=1;" vertex="1" parent="1">
          <mxGeometry x="240" y="103.75" width="510" height="22.5" as="geometry" />
        </mxCell>
        <mxCell id="XHGFNi-8rhCAyEHNkbib-41" value="" style="shape=tableRow;horizontal=0;startSize=0;swimlaneHead=0;swimlaneBody=0;top=0;left=0;bottom=0;right=0;collapsible=0;dropTarget=0;fillColor=none;points=[[0,0.5],[1,0.5]];portConstraint=eastwest;rounded=0;fontFamily=Helvetica;fontSize=8;fontColor=default;strokeColor=default;strokeWidth=1;html=1;" vertex="1" parent="XHGFNi-8rhCAyEHNkbib-40">
          <mxGeometry width="510" height="23" as="geometry" />
        </mxCell>
        <mxCell id="XHGFNi-8rhCAyEHNkbib-42" value="&lt;font style=&quot;font-size: 8px&quot;&gt;id hóa đơn&lt;/font&gt;" style="shape=partialRectangle;html=1;whiteSpace=wrap;connectable=0;fillColor=none;top=0;left=0;bottom=0;right=0;overflow=hidden;rounded=0;fontFamily=Helvetica;fontSize=10;fontColor=default;strokeColor=default;strokeWidth=1;" vertex="1" parent="XHGFNi-8rhCAyEHNkbib-41">
          <mxGeometry width="86" height="23" as="geometry">
            <mxRectangle width="86" height="23" as="alternateBounds" />
          </mxGeometry>
        </mxCell>
        <mxCell id="XHGFNi-8rhCAyEHNkbib-43" value="&lt;font style=&quot;font-size: 8px&quot;&gt;Tên khách hàng&lt;/font&gt;" style="shape=partialRectangle;html=1;whiteSpace=wrap;connectable=0;fillColor=none;top=0;left=0;bottom=0;right=0;overflow=hidden;rounded=0;fontFamily=Helvetica;fontSize=10;fontColor=default;strokeColor=default;strokeWidth=1;" vertex="1" parent="XHGFNi-8rhCAyEHNkbib-41">
          <mxGeometry x="86" width="98" height="23" as="geometry">
            <mxRectangle width="98" height="23" as="alternateBounds" />
          </mxGeometry>
        </mxCell>
        <mxCell id="XHGFNi-8rhCAyEHNkbib-44" value="&lt;font style=&quot;font-size: 8px&quot;&gt;SĐT khách hàng&lt;/font&gt;" style="shape=partialRectangle;html=1;whiteSpace=wrap;connectable=0;fillColor=none;top=0;left=0;bottom=0;right=0;overflow=hidden;rounded=0;fontFamily=Helvetica;fontSize=10;fontColor=default;strokeColor=default;strokeWidth=1;" vertex="1" parent="XHGFNi-8rhCAyEHNkbib-41">
          <mxGeometry x="184" width="81" height="23" as="geometry">
            <mxRectangle width="81" height="23" as="alternateBounds" />
          </mxGeometry>
        </mxCell>
        <mxCell id="XHGFNi-8rhCAyEHNkbib-45" value="&lt;font style=&quot;font-size: 8px&quot;&gt;Địa chỉ&lt;/font&gt;" style="shape=partialRectangle;html=1;whiteSpace=wrap;connectable=0;fillColor=none;top=0;left=0;bottom=0;right=0;overflow=hidden;rounded=0;fontFamily=Helvetica;fontSize=10;fontColor=default;strokeColor=default;strokeWidth=1;" vertex="1" parent="XHGFNi-8rhCAyEHNkbib-41">
          <mxGeometry x="265" width="51" height="23" as="geometry">
            <mxRectangle width="51" height="23" as="alternateBounds" />
          </mxGeometry>
        </mxCell>
        <mxCell id="XHGFNi-8rhCAyEHNkbib-46" value="&lt;font style=&quot;font-size: 8px&quot;&gt;Số lượng sản phẩm đã mua&lt;/font&gt;" style="shape=partialRectangle;html=1;whiteSpace=wrap;connectable=0;fillColor=none;top=0;left=0;bottom=0;right=0;overflow=hidden;rounded=0;fontFamily=Helvetica;fontSize=10;fontColor=default;strokeColor=default;strokeWidth=1;" vertex="1" parent="XHGFNi-8rhCAyEHNkbib-41">
          <mxGeometry x="316" width="109" height="23" as="geometry">
            <mxRectangle width="109" height="23" as="alternateBounds" />
          </mxGeometry>
        </mxCell>
        <mxCell id="XHGFNi-8rhCAyEHNkbib-47" value="&lt;font style=&quot;font-size: 8px&quot;&gt;Tổng tiền đã mua&lt;/font&gt;" style="shape=partialRectangle;html=1;whiteSpace=wrap;connectable=0;fillColor=none;top=0;left=0;bottom=0;right=0;overflow=hidden;pointerEvents=1;rounded=0;fontFamily=Helvetica;fontSize=10;fontColor=default;strokeColor=default;strokeWidth=1;" vertex="1" parent="XHGFNi-8rhCAyEHNkbib-41">
          <mxGeometry x="425" width="85" height="23" as="geometry">
            <mxRectangle width="85" height="23" as="alternateBounds" />
          </mxGeometry>
        </mxCell>
        <mxCell id="XHGFNi-8rhCAyEHNkbib-50" value="" style="line;strokeWidth=2;html=1;rounded=0;fontFamily=Helvetica;fontSize=12;fontColor=default;fillColor=default;" vertex="1" parent="1">
          <mxGeometry x="230" y="87.5" width="530" height="10" as="geometry" />
        </mxCell>
        <mxCell id="XHGFNi-8rhCAyEHNkbib-51" value="&lt;font style=&quot;font-size: 12px&quot;&gt;ListView&lt;/font&gt;" style="rounded=0;whiteSpace=wrap;html=1;fontFamily=Helvetica;fontSize=8;fontColor=default;strokeColor=default;strokeWidth=1;fillColor=default;gradientColor=none;" vertex="1" parent="1">
          <mxGeometry x="240" y="126.25" width="510" height="333.75" as="geometry" />
        </mxCell>
      </root>
    </mxGraphModel>
  </diagram>
</mxfile>
